# xmcd
#
# Track frame offsets:
#	150
#	17273
#	29530
#	48971
#	65684
#	84093
#	103694
#	130647
#	143682
#	158340
#	170650
#	181129
#	201025
#	216360
#	232453
#	245391
#	261096
#	275790
#	295014
#	315249
#
# Disc length: 4371 seconds
#
# Revision: 1
# Processed by: cddbd v1.4PL0 Copyright (c) Steve Scherf et al.
# Submitted via: audiograbber 1.82.02
#
DISCID=13111114
DTITLE=Various Artist - Country Music Awards 1983-1992
DYEAR=1900
DGENRE=Country
TTITLE0=Johnny Chester - Ad In The Weekly Times
TTITLE1=Bullamakanka - Home Among The Gum Trees 
TTITLE2=Redgum - I Was Only 19 (A Walk In The Light Green)
TTITLE3=Arthur Blanch - I've Come A Long Way
TTITLE4=John Williamson - Queen In The Sport Of Kings
TTITLE5=Reg Poole - When The Big Mobs Came To Bourke
TTITLE6=Allan Caswell - The Garden 
TTITLE7=The Flying Emus - Look Out Below
TTITLE8=John Williamson - Mallee Boy
TTITLE9=Three Chord Wonders - Losin' My Blues Tonight
TTITLE10=Allan Hawking - The Old Time Tent Shows
TTITLE11=The Flying Emus - Auctioneer
TTITLE12=James Blundell - Cloncurry Cattle Song
TTITLE13=Smokey Dawson and Trevor Knight - High Country
TTITLE14=Deneise Morrison - You Gotta Learn To Dance
TTITLE15=Happening Thang - I Don't Wanna Go To Work
TTITLE16=Brian Young - Thistles In The Hillside
TTITLE17=James Blundell - Blue Heeler
TTITLE18=Keith Urban - The River
TTITLE19=Anne Kirkpatrick - I Guess We've Been Together For Too Long
EXTD=
EXTT0=
EXTT1=
EXTT2=
EXTT3=
EXTT4=
EXTT5=
EXTT6=
EXTT7=
EXTT8=
EXTT9=
EXTT10=
EXTT11=
EXTT12=
EXTT13=
EXTT14=
EXTT15=
EXTT16=
EXTT17=
EXTT18=
EXTT19=
PLAYORDER=
